<?xml version="1.0" encoding="UTF-8"?>
<svg width="714px" height="200px" viewBox="0 0 714 200" version="1.1" xmlns="http://www.w3.org/2000/svg" xmlns:xlink="http://www.w3.org/1999/xlink">
    <!-- Generator: Sketch 56.3 (81716) - https://sketch.com -->
    <title>Brand_Lockup</title>
    <desc>Created with Sketch.</desc>
    <g id="Brand_Lockup" stroke="none" stroke-width="1" fill="none" fill-rule="evenodd">
        <g id="Brand_Logo">
            <g id="Logo">
                <path d="M0.555130024,108.286385 L15.2801891,114.732394 C15.4025059,117.84507 17.7688652,123.399061 16.7856265,125.713615 C15.6800709,128.309859 10.6697872,133.333333 8.60451537,136.86385 L20.9679196,158.488263 C28.4951064,157.967136 30.7956028,156.488263 34.0746336,156.849765 C36.0411111,157.065728 38.2098818,158.413146 41.6582742,162.352113 C42.7591253,163.568075 43.4647991,163.957746 43.3424823,164.746479 C42.7073759,168.779343 41.7335461,177.7277 41.79,179.131455 L63.6235461,191.948357 C66.6250118,190.150235 73.5029787,183.600939 75.8552246,183.577465 L77.0407565,183.507042 C77.1771868,183.507042 77.4782742,183.507042 77.6476359,183.530516 L81.3500709,184.431925 C87.3388889,186.014085 86.134539,184.774648 89.9922222,195.615023 C90.3105695,196.60554 90.8329729,197.518669 91.5258865,198.295775 C93.2477305,200.126761 112.597305,200.352113 117.071277,199.234742 L117.071277,117.112676 L91.2671395,102.028169 L91.2671395,160.140845 C78.8896217,159.201878 61.384208,147.098592 53.6312057,137.375587 C29.2431206,106.798122 35.8670449,64.0422535 67.2224823,41.9342723 C69.8381797,40.0892019 72.0916312,39.3004695 74.3827187,37.5915493 L74.3827187,7.83568075 L74.1474941,7.45070423 C74.0220184,7.2821768 73.90882,7.10488288 73.8087707,6.92018779 C70.0969267,5.56338028 67.3259811,2.24413146 63.8681797,0 C60.1045863,1.5258216 45.3089598,9.98122066 42.0111111,12.6760563 C41.5735934,17.1830986 43.5588889,21.4835681 43.6012293,25.2300469 C43.6294563,28.0469484 38.5580142,34.314554 35.6412293,34.6760563 C35.0719858,34.7464789 33.4912766,34.6760563 32.7479669,34.7089202 C32.6491726,34.7089202 31.2143026,34.6431925 31.0214184,34.6197183 C28.1987234,34.3051643 24.3645626,33.1361502 21.0761229,33.3098592 L8.46808511,55.342723 L17.5618676,66.9014085 C16.9314657,71.4882629 15.7788652,77.1267606 12.3869267,78.600939 C8.29401891,80.3802817 4.02234043,81.1079812 0.76212766,83.7652582 C0.522198582,88.6056338 0.362245863,103.061033 0.555130024,108.286385 Z" id="Path" fill="#00A1E9"></path>
                <path d="M91.2671395,83.5680751 L117.071277,98.3333333 L117.071277,32.8638498 C144.323028,38.0310415 165.238505,59.9649357 169.059428,87.3834096 C172.880351,114.801883 158.755793,141.598785 133.950993,153.99061 L133.950993,185.201878 C172.537549,172.664657 198.651597,136.764498 198.642461,96.2676056 C198.642461,48.7276995 163.08591,9.48356808 117.061868,3.56338028 C108.493396,2.46698005 99.8150629,2.54279713 91.2671395,3.78873239 L91.2671395,83.5680751 Z" id="Path" fill="#F39800"></path>
            </g>
        </g>
        <path d="M259,2 L284.999507,2 C296.576953,2 305.557609,5.09033272 311.941744,11.2710909 C318.325879,17.451849 321.517898,26.1579476 321.517898,37.3896479 C321.517898,48.687808 318.325879,57.4437507 311.941744,63.6577387 C305.557609,69.8717268 296.576953,72.9786742 284.999507,72.9786742 L259,72.9786742 L259,2 Z M284.205629,62.5113135 C300.480211,62.5113135 308.61738,54.1375087 308.61738,37.3896479 C308.61738,20.7747067 300.480211,12.4673607 284.205629,12.4673607 L271.801284,12.4673607 L271.801284,62.5113135 L284.205629,62.5113135 Z M379.496885,22.6356539 L379.496885,72.9786742 L367.29101,72.9786742 L367.29101,64.9038531 C365.769402,67.6951632 363.58626,69.8716879 360.741516,71.4334924 C357.896772,72.9952969 354.655135,73.7761874 351.016509,73.7761874 C346.650158,73.7761874 342.780041,72.7128471 339.406042,70.5861346 C336.032044,68.4594221 333.418888,65.4355482 331.566496,61.514422 C329.714105,57.5932959 328.787923,53.0408703 328.787923,47.8570086 C328.787923,42.6731469 329.730644,38.0708772 331.616114,34.0500614 C333.501584,30.0292457 336.131278,26.9056836 339.505277,24.6792814 C342.879276,22.4528793 346.716315,21.3396949 351.016509,21.3396949 C354.655135,21.3396949 357.896772,22.1205855 360.741516,23.6823899 C363.58626,25.2441944 365.769402,27.4207191 367.29101,30.2120292 L367.29101,22.6356539 L379.496885,22.6356539 Z M354.390491,64.0066508 C358.492215,64.0066508 361.667695,62.5777872 363.917028,59.7200173 C366.16636,56.8622475 367.29101,52.841492 367.29101,47.6576303 C367.29101,42.3408491 366.16636,38.2536349 363.917028,35.395865 C361.667695,32.5380951 358.459137,31.1092315 354.291256,31.1092315 C350.189532,31.1092315 346.997513,32.5879391 344.715102,35.5453987 C342.432691,38.5028582 341.291503,42.6066872 341.291503,47.8570086 C341.291503,53.0408703 342.432691,57.0283964 344.715102,59.8197065 C346.997513,62.6110166 350.22261,64.0066508 354.390491,64.0066508 Z M406.613862,32.0064339 L406.613862,54.5361816 C406.613862,60.4511007 409.359329,63.4085159 414.850347,63.4085159 C416.371954,63.4085159 418.02585,63.1426808 419.812085,62.6110027 L419.812085,72.4802284 C417.628909,73.2777456 414.982675,73.6764982 411.873304,73.6764982 C406.183816,73.6764982 401.81753,72.0814878 398.774316,68.8914191 C395.731101,65.7013503 394.209517,61.1156953 394.209517,55.1343165 L394.209517,32.0064339 L384.583745,32.0064339 L384.583745,22.6356539 L394.209517,22.6356539 L394.209517,10.3738885 L406.613862,6.18694426 L406.613862,22.6356539 L419.911319,22.6356539 L419.911319,32.0064339 L406.613862,32.0064339 Z M474.21862,22.6356539 L474.21862,72.9786742 L462.012745,72.9786742 L462.012745,64.9038531 C460.491137,67.6951632 458.307994,69.8716879 455.46325,71.4334924 C452.618506,72.9952969 449.37687,73.7761874 445.738244,73.7761874 C441.371893,73.7761874 437.501776,72.7128471 434.127777,70.5861346 C430.753779,68.4594221 428.140623,65.4355482 426.288231,61.514422 C424.43584,57.5932959 423.509658,53.0408703 423.509658,47.8570086 C423.509658,42.6731469 424.452379,38.0708772 426.337849,34.0500614 C428.223318,30.0292457 430.853013,26.9056836 434.227012,24.6792814 C437.601011,22.4528793 441.43805,21.3396949 445.738244,21.3396949 C449.37687,21.3396949 452.618506,22.1205855 455.46325,23.6823899 C458.307994,25.2441944 460.491137,27.4207191 462.012745,30.2120292 L462.012745,22.6356539 L474.21862,22.6356539 Z M449.112226,64.0066508 C453.21395,64.0066508 456.38943,62.5777872 458.638763,59.7200173 C460.888095,56.8622475 462.012745,52.841492 462.012745,47.6576303 C462.012745,42.3408491 460.888095,38.2536349 458.638763,35.395865 C456.38943,32.5380951 453.180872,31.1092315 449.012991,31.1092315 C444.911267,31.1092315 441.719248,32.5879391 439.436837,35.5453987 C437.154426,38.5028582 436.013238,42.6066872 436.013238,47.8570086 C436.013238,53.0408703 437.154426,57.0283964 439.436837,59.8197065 C441.719248,62.6110166 444.944345,64.0066508 449.112226,64.0066508 Z M320.128612,127.323502 L326.876575,127.323502 L326.876575,198.302176 L319.334734,198.302176 L319.334734,145.566616 L296.411504,198.302176 L290.655888,198.302176 L267.534189,145.965373 L267.633424,198.302176 L260.091582,198.302176 L260.091582,127.323502 L266.839546,127.323502 L293.632931,188.532639 L320.128612,127.323502 Z M382.970102,172.981132 L346.352475,172.981132 C346.418632,179.36127 347.8906,184.17953 350.768422,187.436059 C353.646245,190.692587 357.830602,192.320827 363.321619,192.320827 C369.143421,192.320827 374.502044,190.360293 379.39765,186.439167 L382.076989,192.320827 C379.893813,194.38108 377.098729,196.00932 373.691652,197.205595 C370.284575,198.401871 366.794854,199 363.222385,199 C355.415878,199 349.296462,196.690558 344.863954,192.071604 C340.431446,187.45265 338.215225,181.122453 338.215225,173.080821 C338.215225,167.963419 339.207563,163.427608 341.192268,159.473252 C343.176973,155.518896 345.955519,152.445178 349.527988,150.252006 C353.100457,148.058834 357.169041,146.962264 361.733863,146.962264 C368.349547,146.962264 373.542781,149.138789 377.31372,153.491903 C381.08466,157.845018 382.970102,163.842922 382.970102,171.485795 L382.970102,172.981132 Z M361.833098,153.242681 C357.665217,153.242681 354.27473,154.505397 351.661535,157.030868 C349.04834,159.556339 347.377905,163.111883 346.65018,167.697607 L375.725964,167.697607 C375.329023,162.978964 373.956289,159.39019 371.607722,156.931179 C369.259154,154.472168 366.000979,153.242681 361.833098,153.242681 Z M413.957234,199 C409.127785,199 404.91035,197.93666 401.304802,195.809947 C397.699254,193.683235 394.920709,190.675975 392.969082,186.788079 C391.017456,182.900183 390.041657,178.364372 390.041657,173.18051 C390.041657,167.996649 391.033994,163.427608 393.0187,159.473252 C395.003405,155.518896 397.831567,152.445178 401.503272,150.252006 C405.174976,148.058834 409.458567,146.962264 414.354173,146.962264 C417.728172,146.962264 420.986347,147.543778 424.128797,148.706824 C427.271246,149.86987 429.867863,151.481495 431.918725,153.541748 L429.239387,159.523097 C426.725427,157.529304 424.2942,156.067211 421.945632,155.136774 C419.597064,154.206338 417.198915,153.741126 414.751112,153.741126 C409.657035,153.741126 405.654607,155.45244 402.743706,158.875117 C399.832805,162.297795 398.377377,167.066212 398.377377,173.18051 C398.377377,179.228349 399.816266,183.930307 402.694089,187.286525 C405.571911,190.642743 409.590879,192.320827 414.751112,192.320827 C417.198915,192.320827 419.597064,191.855616 421.945632,190.925179 C424.2942,189.994742 426.725427,188.532649 429.239387,186.538856 L431.918725,192.520205 C429.801706,194.513998 427.138934,196.092394 423.930327,197.25544 C420.721721,198.418486 417.397389,199 413.957234,199 Z M464.890553,146.962264 C476.86494,146.962264 482.852044,153.574912 482.852044,166.800405 L482.852044,198.302176 L474.814029,198.302176 L474.814029,167.199161 C474.814029,162.546978 473.887847,159.140966 472.035455,156.981024 C470.183064,154.821081 467.272207,153.741126 463.302796,153.741126 C458.671818,153.741126 454.967091,155.16999 452.188503,158.02776 C449.409916,160.88553 448.020644,164.740138 448.020644,169.591701 L448.020644,198.302176 L439.982628,198.302176 L439.982628,124.930962 L448.020644,124.930962 L448.020644,156.333044 C449.608408,153.275895 451.874245,150.949838 454.818225,149.354804 C457.762204,147.759769 461.119613,146.962264 464.890553,146.962264 Z M539.838683,148.158534 L539.838683,198.302176 L531.899902,198.302176 L531.899902,189.230463 C530.444452,192.354072 528.24477,194.763203 525.300791,196.457927 C522.356812,198.152651 518.933247,199 515.029993,199 C510.597485,199 506.710829,197.93666 503.369909,195.809947 C500.028989,193.683235 497.448911,190.675975 495.629598,186.788079 C493.810285,182.900183 492.900642,178.364372 492.900642,173.18051 C492.900642,167.996649 493.826824,163.427608 495.679215,159.473252 C497.531607,155.518896 500.128224,152.445178 503.469144,150.252006 C506.810064,148.058834 510.663642,146.962264 515.029993,146.962264 C518.933247,146.962264 522.340273,147.826228 525.251173,149.554182 C528.162074,151.282136 530.378295,153.707881 531.899902,156.83149 L531.899902,148.158534 L539.838683,148.158534 Z M516.617749,192.320827 C521.513355,192.320827 525.284239,190.642743 527.930512,187.286525 C530.576785,183.930307 531.899902,179.16189 531.899902,172.981132 C531.899902,166.800374 530.576785,162.048572 527.930512,158.725584 C525.284239,155.402595 521.513355,153.741126 516.617749,153.741126 C511.722144,153.741126 507.901643,155.45244 505.156135,158.875117 C502.410626,162.297795 501.037892,167.066212 501.037892,173.18051 C501.037892,179.294809 502.394087,184.013381 505.106517,187.33637 C507.818948,190.659358 511.655987,192.320827 516.617749,192.320827 Z M578.169187,146.962264 C590.143575,146.962264 596.130679,153.574912 596.130679,166.800405 L596.130679,198.302176 L588.092663,198.302176 L588.092663,167.199161 C588.092663,162.546978 587.166482,159.140966 585.31409,156.981024 C583.461699,154.821081 580.550842,153.741126 576.581431,153.741126 C571.950453,153.741126 568.245725,155.16999 565.467138,158.02776 C562.688551,160.88553 561.299278,164.740138 561.299278,169.591701 L561.299278,198.302176 L553.261263,198.302176 L553.261263,162.214704 C553.261263,157.030842 552.99664,152.345499 552.467385,148.158534 L560.108461,148.158534 L560.902339,157.130557 C562.423947,153.874029 564.706323,151.36521 567.749538,149.604027 C570.792752,147.842843 574.265934,146.962264 578.169187,146.962264 Z M609.15632,198.302176 L609.15632,148.158534 L617.194335,148.158534 L617.194335,198.302176 L609.15632,198.302176 Z M608.362442,126.924745 L618.186683,126.924745 L618.186683,136.096147 L608.362442,136.096147 L608.362442,126.924745 Z M651.555449,199 C646.726,199 642.508565,197.93666 638.903017,195.809947 C635.29747,193.683235 632.518924,190.675975 630.567298,186.788079 C628.615671,182.900183 627.639872,178.364372 627.639872,173.18051 C627.639872,167.996649 628.63221,163.427608 630.616915,159.473252 C632.60162,155.518896 635.429782,152.445178 639.101487,150.252006 C642.773191,148.058834 647.056782,146.962264 651.952388,146.962264 C655.326387,146.962264 658.584562,147.543778 661.727012,148.706824 C664.869462,149.86987 667.466079,151.481495 669.516941,153.541748 L666.837602,159.523097 C664.323642,157.529304 661.892415,156.067211 659.543847,155.136774 C657.19528,154.206338 654.79713,153.741126 652.349327,153.741126 C647.255251,153.741126 643.252822,155.45244 640.341921,158.875117 C637.431021,162.297795 635.975592,167.066212 635.975592,173.18051 C635.975592,179.228349 637.414482,183.930307 640.292304,187.286525 C643.170126,190.642743 647.189094,192.320827 652.349327,192.320827 C654.79713,192.320827 657.19528,191.855616 659.543847,190.925179 C661.892415,189.994742 664.323642,188.532649 666.837602,186.538856 L669.516941,192.520205 C667.399922,194.513998 664.737149,196.092394 661.528542,197.25544 C658.319936,198.418486 654.995605,199 651.555449,199 Z M694.450752,199 C686.048834,199 679.400172,196.84009 674.504566,192.520205 L677.183904,186.538856 C679.896335,188.665569 682.641802,190.194121 685.420389,191.124557 C688.198976,192.054994 691.308301,192.520205 694.748457,192.520205 C698.519396,192.520205 701.380637,191.872232 703.332263,190.576267 C705.28389,189.280301 706.259689,187.402841 706.259689,184.94383 C706.259689,182.950037 705.59813,181.355027 704.274994,180.158751 C702.951857,178.962475 700.768714,178.032052 697.725499,177.367455 L689.290545,175.373672 C685.122664,174.443235 681.897567,172.781766 679.615156,170.389214 C677.332745,167.996663 676.191557,165.138936 676.191557,161.815947 C676.191557,157.429603 677.944687,153.857444 681.450999,151.099364 C684.957311,148.341284 689.58822,146.962264 695.343865,146.962264 C698.850178,146.962264 702.15797,147.527164 705.267341,148.65698 C708.376713,149.786796 710.989868,151.415036 713.106887,153.541748 L710.427549,159.423408 C705.730413,155.502282 700.702569,153.541748 695.343865,153.541748 C691.771396,153.541748 689.00939,154.22295 687.057763,155.585376 C685.106136,156.947801 684.130337,158.85849 684.130337,161.317502 C684.130337,163.377754 684.742279,165.005994 685.966181,166.20227 C687.190082,167.398546 689.158218,168.328968 691.870649,168.993566 L700.305603,171.087038 C704.936582,172.150394 708.376686,173.795249 710.626018,176.021651 C712.875351,178.248053 714,181.155624 714,184.744452 C714,189.064336 712.24687,192.520192 708.740558,195.112123 C705.234245,197.704054 700.471025,199 694.450752,199 Z" id="DataMechanics---Muli" fill="#2A2A2A" fill-rule="nonzero"></path>
    </g>
</svg>